<?xml version="1.0" standalone="no"?>
<!DOCTYPE svg PUBLIC "-//W3C//DTD SVG 20010904//EN"
 "http://www.w3.org/TR/2001/REC-SVG-20010904/DTD/svg10.dtd">
<svg version="1.0" xmlns="http://www.w3.org/2000/svg"
 width="4500.000000pt" height="4500.000000pt" viewBox="0 0 4500.000000 4500.000000"
 preserveAspectRatio="xMidYMid meet">

<g transform="translate(0.000000,4500.000000) scale(0.100000,-0.100000)"
fill="#000000" stroke="none">
<path d="M6790 35390 l0 -1890 2585 0 2585 0 0 1890 0 1890 -2585 0 -2585 0 0
-1890z"/>
<path d="M19910 34625 l0 -2655 -74 0 c-41 0 -128 7 -192 15 -229 30 -417 78
-959 244 -779 239 -1220 330 -1795 371 -314 22 -809 8 -1075 -31 -617 -89
-1204 -340 -1715 -735 -133 -102 -435 -399 -534 -524 -306 -386 -482 -783
-564 -1275 -15 -93 -17 -642 -20 -7420 -2 -5124 0 -7369 8 -7485 48 -739 298
-1391 752 -1957 115 -143 356 -390 493 -505 615 -514 1373 -844 2205 -959 133
-18 218 -22 590 -26 568 -6 824 10 1229 78 440 73 895 221 1284 415 145 73
318 171 542 307 238 145 344 197 405 197 78 0 116 -37 350 -340 165 -213 274
-326 356 -366 l59 -29 1870 0 1870 0 3 12668 2 12667 -2545 0 -2545 0 0 -2655z
m-557 -5290 c199 -42 367 -203 458 -440 38 -98 74 -257 88 -387 8 -67 11
-2040 11 -6359 0 -5626 -2 -6272 -16 -6367 -62 -418 -321 -735 -683 -834 -110
-31 -333 -30 -445 0 -214 59 -401 196 -523 384 -78 121 -127 249 -160 421 -17
88 -18 395 -18 6402 l0 6310 23 129 c77 426 267 677 558 740 97 20 610 22 707
1z"/>
<path d="M33445 32653 c-518 -17 -1075 -106 -1475 -235 -361 -117 -627 -240
-1246 -576 -143 -78 -266 -142 -272 -142 -13 0 -53 67 -182 305 -156 290 -260
424 -367 477 l-48 23 -1875 0 -1875 0 -3 -12392 -2 -12393 2590 0 2590 0 0
2344 0 2343 88 -14 c183 -29 397 -87 822 -223 872 -280 1321 -374 1955 -411
304 -18 786 1 1056 41 636 94 1181 311 1632 648 518 388 913 926 1156 1574 90
239 147 459 198 758 17 100 18 438 21 7215 2 5008 0 7150 -8 7245 -35 443
-131 791 -325 1186 -354 719 -985 1315 -1817 1718 -651 315 -1302 468 -2163
506 -209 9 -262 10 -450 3z m-871 -3341 c96 -45 159 -95 222 -176 104 -131
182 -324 222 -546 16 -89 17 -497 17 -6530 0 -6147 -1 -6438 -18 -6505 -69
-270 -288 -482 -588 -569 -216 -62 -416 -60 -614 5 -254 84 -430 261 -507 511
l-23 73 -3 6425 c-2 4756 0 6455 8 6540 14 138 56 309 98 403 71 155 180 281
299 344 108 58 143 62 498 60 l320 -2 69 -33z"/>
<path d="M6790 22230 l0 -10280 2585 0 2585 0 0 10280 0 10280 -2585 0 -2585
0 0 -10280z"/>
</g>
</svg>
